<svg viewBox="0 0 48 48" xmlns="http://www.w3.org/2000/svg"><defs><linearGradient x1="133.341%" y1="23.372%" x2="-33.123%" y2="133.195%" id="a"><stop stop-color="#00BFFF" offset="0%"/><stop stop-color="#006AFF" offset="100%"/></linearGradient></defs><g fill="none" fill-rule="evenodd"><circle fill="url(#a)" cx="24" cy="24" r="24"/><path d="M23.95 7.033c8.44 0 15.283 6.843 15.283 15.284 0 5.051-2.45 9.53-6.228 12.313A2.44 2.44 0 0 1 34 36.612c0 1.337-1.045 2.421-2.333 2.421-1.285 0-2.327-1.077-2.334-2.408a15.187 15.187 0 0 1-3.474.857C25.568 38.372 24.845 39 24 39c-.841 0-1.561-.623-1.857-1.506a15.173 15.173 0 0 1-3.478-.833c-.024 1.315-1.059 2.372-2.332 2.372-1.288 0-2.333-1.084-2.333-2.421 0-.798.372-1.505.945-1.947a15.258 15.258 0 0 1-6.278-12.348c0-8.441 6.842-15.284 15.283-15.284zM10.144 24.33l.02.13c1.03 6.687 6.81 11.807 13.786 11.807 6.965 0 12.737-5.104 13.782-11.776-1.06 1.034-2.744 1.914-4.85 2.564l-.432.128c-.145.042-.293.082-.442.122l-.453.115-.464.108c-.156.036-.313.07-.473.102l-.483.095a28.6 28.6 0 0 1-.245.044l-.496.084-.505.077-.256.036-.517.065-.262.03-.529.054c-.443.041-.894.074-1.352.1l-.552.025a36.47 36.47 0 0 1-2.809 0l-.552-.026a34.476 34.476 0 0 1-1.352-.1l-.529-.053-.261-.03-.518-.065-.255-.036-.506-.077-.496-.084a28.6 28.6 0 0 1-.245-.044l-.483-.095-.238-.05-.468-.105a25.153 25.153 0 0 1-.23-.055l-.454-.115c-.149-.04-.296-.08-.442-.122l-.431-.128c-2.215-.683-3.964-1.621-5.008-2.725zM23.95 8.367c-7.704 0-13.95 6.245-13.95 13.95v.023c.58 1.16 2.078 2.209 4.188 3.011l.38.14c.13.046.26.09.394.134l.405.13.417.122c.211.06.427.118.646.174l.445.108.226.052.46.099.47.092.48.085.242.04.493.075.501.068c.337.042.68.08 1.027.113l.524.045.531.038.538.029.544.021a35.488 35.488 0 0 0 2.211 0l.544-.021.538-.03.531-.037.525-.045c.347-.033.69-.07 1.026-.113l.501-.068.493-.075.243-.04.48-.085.47-.092.46-.1.225-.05.445-.109c.22-.056.435-.113.646-.174l.417-.123.406-.129c.133-.043.264-.088.393-.134l.38-.14c1.963-.746 3.396-1.706 4.053-2.769l.002-.265c0-7.705-6.246-13.95-13.95-13.95z" fill="#FFF"/></g></svg>