<?xml version="1.0" encoding="UTF-8" standalone="yes"?>
<!-- Created with sK1/UniConvertor (http://sk1project.org/) -->
<svg xmlns="http://www.w3.org/2000/svg" xmlns:xlink="http://www.w3.org/1999/xlink"
  width="48pt" height="48pt" viewBox="0 0 48 48"
  fill-rule="evenodd">
<g>
<g>
<path style="stroke:none; fill:#000000" d="M 0 24L 0 48L 24 48L 48 48L 48 24L 48 0L 24 0L 0 0L 0 24zM 36.3 21.3C 41.8 31.2 46 39.8 46 41.3L 46 44L 24 44L 2 44L 2 41.4C 2 39.9 6.3 31.1 11.7 21.4C 24.6 -1.7 23.4 -1.7 36.3 21.3z"/>
<path style="stroke:none; fill:#000000" d="M 17.4 16.2C 14.3 21.9 10 29.5 7.9 33.2C 5.7 36.8 4 40.3 4 40.9C 4 41.7 10.4 42 24 42C 36.2 42 44 41.6 44 41C 44 39.5 25.3 6.6 24.2 6.2C 23.6 6 20.6 10.5 17.4 16.2zM 32.7 24.8L 40.9 39.5L 32.5 39.8C 27.8 39.9 20.2 39.9 15.6 39.8L 7.1 39.5L 15.3 24.7C 19.8 16.6 23.7 10 24 10C 24.3 10 28.2 16.7 32.7 24.8z"/>
<path style="stroke:none; fill:#000000" d="M 20.8 23.5C 17.4 28.6 17.3 32 20.1 34.6C 22.2 36.5 22.3 36.5 21.6 34.4C 21.2 33 21.6 31.5 22.8 29.9L 24.7 27.6L 25.9 29.8C 26.6 31.1 26.8 33.1 26.4 34.3C 25.7 36.5 25.8 36.5 27.9 34.6C 31.3 31.5 30.1 25.1 25.4 20.8C 23.6 19.3 23.4 19.4 20.8 23.5z"/>
</g>
</g>
</svg>