<?xml version="1.0" encoding="iso-8859-1"?>
<!-- Generator: Adobe Illustrator 21.0.0, SVG Export Plug-In . SVG Version: 6.00 Build 0)  -->
<svg version="1.1" id="Layer_1" xmlns="http://www.w3.org/2000/svg" xmlns:xlink="http://www.w3.org/1999/xlink" x="0px" y="0px"
	 viewBox="0 0 24 24" enable-background="new 0 0 24 24" xml:space="preserve">
<g>
	
		<circle fill="none" stroke="#303C42" stroke-linecap="round" stroke-linejoin="round" stroke-miterlimit="10" cx="11.5" cy="8" r="0.5"/>
	
		<circle fill="none" stroke="#303C42" stroke-linecap="round" stroke-linejoin="round" stroke-miterlimit="10" cx="14" cy="13" r="0.5"/>
	
		<circle fill="none" stroke="#303C42" stroke-linecap="round" stroke-linejoin="round" stroke-miterlimit="10" cx="10" cy="17" r="0.5"/>
	
		<circle fill="none" stroke="#303C42" stroke-linecap="round" stroke-linejoin="round" stroke-miterlimit="10" cx="15" cy="18" r="0.5"/>
	<path id="XMLID_1390_" fill="none" stroke="#303C42" stroke-linecap="round" stroke-linejoin="round" stroke-miterlimit="10" d="
		M10.4433594,20.5C10.2996216,21.5946045,9.8515015,22.8613739,9,23.5h6c-0.8515015-0.6386261-1.2996216-1.9053955-1.4433594-3
		H10.4433594z"/>
	<polyline fill="none" stroke="#303C42" stroke-linecap="round" stroke-linejoin="round" stroke-miterlimit="10" points="
		10.4355469,5.206665 6.5,9.5 9.5,9.5 5,15 8,15 3.5,20.5 20.5,20.5 16,15 19,15 14.5,9.5 17.5,9.5 13.5644531,5.206665 	"/>
	<polygon fill="none" stroke="#303C42" stroke-linecap="round" stroke-linejoin="round" stroke-miterlimit="10" points="12,0.5 
		12.8018675,2.1247559 14.7089043,2.5316772 13.2974491,3.6500092 13.603735,5.435791 12,4.5926514 10.396265,5.435791 
		10.7025509,3.6500092 9.2910957,2.5316772 11.1981325,2.1247559 	"/>
</g>
</svg>
