<?xml version="1.0" encoding="iso-8859-1"?>
<!-- Generator: Adobe Illustrator 19.1.0, SVG Export Plug-In . SVG Version: 6.00 Build 0)  -->
<svg version="1.1" id="Capa_1" xmlns="http://www.w3.org/2000/svg" xmlns:xlink="http://www.w3.org/1999/xlink" x="0px" y="0px"
	 viewBox="0 0 25.419 25.419" style="enable-background:new 0 0 25.419 25.419;" xml:space="preserve">
<g>
	<g>
		<path d="M24.307,0h-8.632H9.797H1.165c-0.318,0-0.53,0.212-0.53,0.53s0.212,0.53,0.53,0.53h8.102v2.33
			C9.056,3.495,8.844,3.654,8.632,3.813C7.891,4.501,7.573,5.719,7.573,7.52c0,4.448,2.012,12.921,5.137,12.921
			s5.137-8.473,5.137-12.921c0-1.853-0.318-3.019-1.059-3.707c-0.212-0.212-0.424-0.318-0.635-0.424v-2.33h8.102
			c0.318,0,0.53-0.212,0.53-0.53S24.572,0,24.307,0z M12.71,19.488c-1.642,0-4.078-6.249-4.078-11.862
			c0-1.536,0.265-2.489,0.741-2.966c0.424-0.424,1.059-0.477,1.906-0.477h0.053c0.212,0,0.424,0,0.635,0c0.477,0,1.006,0,1.536,0
			c1.165,0,2.065-0.053,2.595,0.477c0.477,0.477,0.741,1.43,0.741,2.966C16.787,13.186,14.351,19.488,12.71,19.488z M15.146,3.071
			h-4.819V1.059h4.819V3.071z"/>
		<path d="M12.71,22.295c-0.318,0-0.53,0.212-0.53,0.53v2.065c0,0.318,0.212,0.53,0.53,0.53s0.53-0.212,0.53-0.53v-2.065
			C13.239,22.507,13.027,22.295,12.71,22.295z"/>
		<path d="M5.613,15.199c0-0.318-0.212-0.53-0.53-0.53H3.019c-0.318,0-0.53,0.212-0.53,0.53c0,0.318,0.212,0.53,0.53,0.53h2.065
			C5.402,15.728,5.613,15.463,5.613,15.199z"/>
		<path d="M22.401,14.669h-2.065c-0.318,0-0.53,0.212-0.53,0.53c0,0.318,0.212,0.53,0.53,0.53h2.065c0.318,0,0.53-0.212,0.53-0.53
			C22.93,14.881,22.718,14.669,22.401,14.669z"/>
		<path d="M6.937,20.229l-1.483,1.483c-0.212,0.212-0.212,0.53,0,0.741c0.106,0.106,0.265,0.159,0.371,0.159
			c0.159,0,0.265-0.053,0.371-0.159l1.483-1.483c0.212-0.212,0.212-0.53,0-0.741C7.467,20.018,7.149,20.018,6.937,20.229z"/>
		<path d="M18.482,20.229c-0.212-0.212-0.53-0.212-0.741,0c-0.212,0.212-0.212,0.53,0,0.741l1.483,1.483
			c0.106,0.106,0.265,0.159,0.371,0.159c0.159,0,0.265-0.053,0.371-0.159c0.212-0.212,0.212-0.53,0-0.741L18.482,20.229z"/>
	</g>
</g>
<g>
</g>
<g>
</g>
<g>
</g>
<g>
</g>
<g>
</g>
<g>
</g>
<g>
</g>
<g>
</g>
<g>
</g>
<g>
</g>
<g>
</g>
<g>
</g>
<g>
</g>
<g>
</g>
<g>
</g>
</svg>
