<?xml version="1.0" encoding="utf-8"?>
<!-- Generator: Adobe Illustrator 18.0.0, SVG Export Plug-In . SVG Version: 6.00 Build 0)  -->
<!DOCTYPE svg PUBLIC "-//W3C//DTD SVG 1.1//EN" "http://www.w3.org/Graphics/SVG/1.1/DTD/svg11.dtd">
<svg version="1.1" id="Layer_1" xmlns="http://www.w3.org/2000/svg" xmlns:xlink="http://www.w3.org/1999/xlink" x="0px" y="0px"
	 viewBox="0 0 512 512" enable-background="new 0 0 512 512" xml:space="preserve">
<g>
	<g>
		<g>
			<g>
				<path d="M477.9,473.9c-45.7,0-91.3,0-137,0c-0.1,0-0.2,0-0.3,0c2.5,2.5,5,5,7.5,7.5c0-33.5,0-67,0-100.5c0-64.2,0-128.4,0-192.6
					c0-40.3,0-80.7,0-121c0-0.6,0-1.3,0-1.9c-2.5,2.5-5,5-7.5,7.5c45.7,0,91.3,0,137,0c0.1,0,0.2,0,0.3,0c-2.5-2.5-5-5-7.5-7.5
					c0,33.5,0,67,0,100.5c0,64.2,0,128.4,0,192.6c0,40.3,0,80.7,0,121c0,0.6,0,1.3,0,1.9c0,9.7,15,9.7,15,0c0-33.5,0-67,0-100.5
					c0-64.2,0-128.4,0-192.6c0-40.3,0-80.7,0-121c0-0.6,0-1.3,0-1.9c0-4.1-3.4-7.5-7.5-7.5c-45.7,0-91.3,0-137,0c-0.1,0-0.2,0-0.3,0
					c-4.1,0-7.5,3.4-7.5,7.5c0,33.5,0,67,0,100.5c0,64.2,0,128.4,0,192.6c0,40.3,0,80.7,0,121c0,0.6,0,1.3,0,1.9
					c0,4.1,3.4,7.5,7.5,7.5c45.7,0,91.3,0,137,0c0.1,0,0.2,0,0.3,0C487.5,488.9,487.5,473.9,477.9,473.9z"/>
			</g>
		</g>
		<g>
			<g>
				<path d="M340.5,473.9c-41.1,0-82.3,0-123.4,0c-56.2,0-112.5,0-168.7,0c-4.8,0-9.5,0-14.3,0c2.5,2.5,5,5,7.5,7.5
					c0-33.5,0-67,0-100.5c0-64.2,0-128.4,0-192.6c0-40.3,0-80.7,0-121c0-0.6,0-1.3,0-1.9c-2.5,2.5-5,5-7.5,7.5
					c41.1,0,82.3,0,123.4,0c56.2,0,112.5,0,168.7,0c4.8,0,9.5,0,14.3,0c-2.5-2.5-5-5-7.5-7.5c0,33.5,0,67,0,100.5
					c0,64.2,0,128.4,0,192.6c0,40.3,0,80.7,0,121c0,0.6,0,1.3,0,1.9c0,9.7,15,9.7,15,0c0-33.5,0-67,0-100.5c0-64.2,0-128.4,0-192.6
					c0-40.3,0-80.7,0-121c0-0.6,0-1.3,0-1.9c0-4.1-3.4-7.5-7.5-7.5c-41.1,0-82.3,0-123.4,0c-56.2,0-112.5,0-168.7,0
					c-4.8,0-9.5,0-14.3,0c-4.1,0-7.5,3.4-7.5,7.5c0,33.5,0,67,0,100.5c0,64.2,0,128.4,0,192.6c0,40.3,0,80.7,0,121
					c0,0.6,0,1.3,0,1.9c0,4.1,3.4,7.5,7.5,7.5c41.1,0,82.3,0,123.4,0c56.2,0,112.5,0,168.7,0c4.8,0,9.5,0,14.3,0
					C350.2,488.9,350.2,473.9,340.5,473.9z"/>
			</g>
		</g>
	</g>
	<g>
		<g>
			<path d="M491.2,57.9c-30.6,0-61.2,0-91.9,0c-63.3,0-126.7,0-190,0c-53.3,0-106.6,0-159.9,0c-9.5,0-19.1,0-28.6,0
				c2.5,2.5,5,5,7.5,7.5c0-11.6,0-23.2,0-34.8c-2.5,2.5-5,5-7.5,7.5c30.6,0,61.2,0,91.9,0c63.3,0,126.7,0,190,0
				c53.3,0,106.6,0,159.9,0c9.5,0,19.1,0,28.6,0c-2.5-2.5-5-5-7.5-7.5c0,11.6,0,23.2,0,34.8c0,9.7,15,9.7,15,0c0-11.6,0-23.2,0-34.8
				c0-4.1-3.4-7.5-7.5-7.5c-30.6,0-61.2,0-91.9,0c-63.3,0-126.7,0-190,0c-53.3,0-106.6,0-159.9,0c-9.5,0-19.1,0-28.6,0
				c-4.1,0-7.5,3.4-7.5,7.5c0,11.6,0,23.2,0,34.8c0,4.1,3.4,7.5,7.5,7.5c30.6,0,61.2,0,91.9,0c63.3,0,126.7,0,190,0
				c53.3,0,106.6,0,159.9,0c9.5,0,19.1,0,28.6,0C500.8,72.9,500.8,57.9,491.2,57.9z"/>
		</g>
	</g>
	<g>
		<g>
			<path d="M366.9,256c0,13.7,0,27.3,0,41c0,9.7,15,9.7,15,0c0-13.7,0-27.3,0-41C381.9,246.3,366.9,246.3,366.9,256L366.9,256z"/>
		</g>
	</g>
	<g>
		<g>
			<g>
				<path d="M90.3,481.4c0-40.3,0-80.6,0-120.9c0-58,0-116,0-174c0-6.1,0-12.1,0-18.2c0-11.8,4.2-22.5,14.5-29.1
					c18.5-12,44.5,0.3,47.2,22.1c1.4,11.2,0.2,23.1,0.2,34.3c0,9.7,15,9.7,15,0c0-11.7,1.1-24-0.4-35.7c-3-24.1-24.5-41.8-48.7-40.4
					c-23.9,1.5-42.8,22.2-42.8,46c0,4,0,8,0,12c0,54.8,0,109.6,0,164.3c0,46.1,0,92.1,0,138.2c0,0.5,0,1,0,1.5
					C75.3,491.1,90.3,491.1,90.3,481.4L90.3,481.4z"/>
			</g>
		</g>
	</g>
	<g>
		<g>
			<path d="M187.3,224.9c-18.8,0-37.6,0-56.4,0c2.5,2.5,5,5,7.5,7.5c0-5.9-0.8-12.5,0.7-18.2c2.5-9.3,11.3-11.2,19.5-11.2
				c8.3,0,16.6,1.1,20.1,9.9c2.3,5.8,1.1,13.4,1.1,19.5c0,9.7,15,9.7,15,0c0-9.5,0.7-18.7-3.4-27.6c-5.8-12.6-19.1-16.8-31.8-16.8
				c-5.2,0-10.2,0-15.2,1.6c-7.2,2.4-13.1,7.6-17,14c-5.2,8.6-4,19.2-4,28.8c0,4.1,3.4,7.5,7.5,7.5c18.8,0,37.6,0,56.4,0
				C197,239.9,197,224.9,187.3,224.9z"/>
		</g>
	</g>
</g>
</svg>
