<?xml version="1.0" encoding="utf-8"?>
<!-- Generator: Adobe Illustrator 16.0.0, SVG Export Plug-In . SVG Version: 6.00 Build 0)  -->
<!DOCTYPE svg PUBLIC "-//W3C//DTD SVG 1.1 Tiny//EN" "http://www.w3.org/Graphics/SVG/1.1/DTD/svg11-tiny.dtd">
<svg version="1.1" baseProfile="tiny" id="Layer_1" xmlns="http://www.w3.org/2000/svg" xmlns:xlink="http://www.w3.org/1999/xlink"
	 x="0px" y="0px" width="24px" height="24px" viewBox="0 0 24 24" xml:space="preserve">
<g>
	<g>
		<path d="M17.35,11.727H6.683c-1.636,0-2.967-1.331-2.967-2.967V7.872c0-1.636,1.331-2.967,2.967-2.967H17.35
			c1.635,0,2.966,1.331,2.966,2.967V8.76C20.315,10.396,18.985,11.727,17.35,11.727z M6.683,5.504c-1.305,0-2.367,1.062-2.367,2.367
			V8.76c0,1.305,1.062,2.367,2.367,2.367H17.35c1.305,0,2.366-1.062,2.366-2.367V7.872c0-1.305-1.062-2.367-2.366-2.367H6.683z"/>
	</g>
	<g>
		<path d="M19.609,16.022H4.422c-0.941,0-1.706-0.765-1.706-1.706s0.765-1.706,1.706-1.706h15.188c0.941,0,1.706,0.765,1.706,1.706
			S20.55,16.022,19.609,16.022z M4.422,13.209c-0.61,0-1.106,0.497-1.106,1.106s0.497,1.106,1.106,1.106h15.188
			c0.61,0,1.106-0.497,1.106-1.106s-0.497-1.106-1.106-1.106H4.422z"/>
	</g>
	<g>
		<path d="M2.016,13.053c-0.717,0-1.3-0.583-1.3-1.3v-0.938c0-0.717,0.583-1.3,1.3-1.3s1.3,0.583,1.3,1.3v0.938
			C3.315,12.47,2.732,13.053,2.016,13.053z M2.016,10.116c-0.386,0-0.7,0.314-0.7,0.7v0.938c0,0.386,0.314,0.7,0.7,0.7
			s0.7-0.314,0.7-0.7v-0.938C2.716,10.43,2.401,10.116,2.016,10.116z"/>
	</g>
	<g>
		<path d="M21.984,12.928c-0.717,0-1.3-0.583-1.3-1.3v-0.938c0-0.717,0.583-1.3,1.3-1.3s1.3,0.583,1.3,1.3v0.938
			C23.284,12.345,22.701,12.928,21.984,12.928z M21.984,9.991c-0.386,0-0.7,0.314-0.7,0.7v0.938c0,0.386,0.314,0.7,0.7,0.7
			s0.7-0.314,0.7-0.7v-0.938C22.685,10.305,22.37,9.991,21.984,9.991z"/>
	</g>
	<g>
		<path d="M6.016,18.158c-0.166,0-0.3-0.134-0.3-0.3v-2.136c0-0.166,0.134-0.3,0.3-0.3s0.3,0.134,0.3,0.3v2.136
			C6.315,18.023,6.181,18.158,6.016,18.158z"/>
	</g>
	<g>
		<path d="M18.036,18.158c-0.166,0-0.3-0.134-0.3-0.3v-2.136c0-0.166,0.134-0.3,0.3-0.3s0.3,0.134,0.3,0.3v2.136
			C18.336,18.023,18.202,18.158,18.036,18.158z"/>
	</g>
	<g>
		<path d="M7.016,19.095h-2c-0.166,0-0.3-0.134-0.3-0.3s0.134-0.3,0.3-0.3h2c0.166,0,0.3,0.134,0.3,0.3S7.181,19.095,7.016,19.095z"
			/>
	</g>
	<g>
		<path d="M19.016,19.095h-2c-0.166,0-0.3-0.134-0.3-0.3s0.134-0.3,0.3-0.3h2c0.166,0,0.3,0.134,0.3,0.3
			S19.181,19.095,19.016,19.095z"/>
	</g>
</g>
</svg>
